# xmcd
#
# Track frame offsets: 
#        150
#        17360
#        46833
#        70048
#        91805
#        110348
#        131855
#        149983
#        163330
#        182505
#        195820
#
# Disc length: 2779 seconds
#
# Revision: 2
# Processed by: cddbd v1.5.2PL0 Copyright (c) Steve Scherf et al.
# Submitted via: ExactAudioCopy v1.0b3
#
DISCID=900ad90b
DTITLE=すぎやまこういち - DRAGON QUEST in Brass
DYEAR=1988
DGENRE=Game
TTITLE0=行進曲・ロトのテーマ
TTITLE1=ラダトーム城～王城～王宮のロンド
TTITLE2=街の人々～街の賑わい～街
TTITLE3=遥かなる旅路～広野を行く～果てしなき世界
TTITLE4=冒険の旅
TTITLE5=海のワルツ
TTITLE6=戦闘
TTITLE7=フィナーレ
TTITLE8=この道わが旅
TTITLE9=そして伝説へ…
TTITLE10=ロトのテーマ
EXTD=YEAR: 2003
EXTT0=
EXTT1=
EXTT2=
EXTT3=
EXTT4=
EXTT5=
EXTT6=
EXTT7=
EXTT8=
EXTT9=
EXTT10=
PLAYORDER=
